<?xml version="1.0" encoding="UTF-8" standalone="no"?><!DOCTYPE svg PUBLIC "-//W3C//DTD SVG 1.1//EN" "http://www.w3.org/Graphics/SVG/1.1/DTD/svg11.dtd"><svg width="100%" height="100%" viewBox="0 0 110 37" version="1.1" xmlns="http://www.w3.org/2000/svg" xmlns:xlink="http://www.w3.org/1999/xlink" xml:space="preserve" xmlns:serif="http://www.serif.com/" style="fill-rule:evenodd;clip-rule:evenodd;stroke-linejoin:round;stroke-miterlimit:2;"><rect id="pixel_button" x="0" y="0" width="110" height="36.7" style="fill:none;"/><clipPath id="_clip1"><rect x="0" y="0" width="110" height="36.7"/></clipPath><g clip-path="url(#_clip1)"><g id="edge_squares"><rect x="0" y="0" width="18.333" height="18.333" style="fill:#fefefe;"/><path d="M18.333,0l-18.333,0l0,18.333l18.333,0l0,-18.333Zm-0.666,0.667l-0,17c-0,-0 -17,-0 -17,-0c-0,-0 -0,-17 -0,-17l17,-0Z" style="fill:#fafafa;"/><rect x="0" y="18.333" width="18.333" height="18.333" style="fill:#fefefe;"/><path d="M18.333,18.333l-18.333,0l0,18.334l18.333,-0l0,-18.334Zm-0.666,0.667l-0,17c-0,-0 -17,-0 -17,-0c-0,-0 -0,-17 -0,-17l17,0Z" style="fill:#fafafa;"/><rect x="91.667" y="0" width="18.333" height="18.333" style="fill:#fefefe;"/><path d="M110,0l-18.333,0l-0,18.333l18.333,0l0,-18.333Zm-0.667,0.667l0,17c0,-0 -17,-0 -17,-0c0,-0 0,-17 0,-17l17,-0Z" style="fill:#fafafa;"/><rect x="91.667" y="18.333" width="18.333" height="18.333" style="fill:#fefefe;"/><path d="M110,18.333l-18.333,0l-0,18.334l18.333,-0l0,-18.334Zm-0.667,0.667l0,17c0,-0 -17,-0 -17,-0c0,-0 0,-17 0,-17l17,0Z" style="fill:#fafafa;"/></g><g id="secondary_squares"><rect x="18.333" y="0" width="18.333" height="18.333" style="fill:#fefefe;"/><path d="M36.667,0l-18.334,0l0,18.333l18.334,0l-0,-18.333Zm-0.667,0.667l0,17c-0,-0 -17,-0 -17,-0c0,-0 0,-17 0,-17l17,-0Z" style="fill:#fafafa;"/><rect x="18.333" y="18.333" width="18.333" height="18.333" style="fill:#fefefe;"/><path d="M36.667,18.333l-18.334,0l0,18.334l18.334,-0l-0,-18.334Zm-0.667,0.667l0,17c-0,-0 -17,-0 -17,-0c0,-0 0,-17 0,-17l17,0Z" style="fill:#fafafa;"/><rect x="73.333" y="0" width="18.333" height="18.333" style="fill:#fefefe;"/><path d="M91.667,0l-18.334,0l0,18.333l18.334,0l-0,-18.333Zm-0.667,0.667l0,17c-0,-0 -17,-0 -17,-0c0,-0 0,-17 0,-17l17,-0Z" style="fill:#fafafa;"/><rect x="73.333" y="18.333" width="18.333" height="18.333" style="fill:#fefefe;"/><path d="M91.667,18.333l-18.334,0l0,18.334l18.334,-0l-0,-18.334Zm-0.667,0.667l0,17c-0,-0 -17,-0 -17,-0c-0,-0 0,-17 0,-17l17,0Z" style="fill:#fafafa;"/></g><g id="middle_squares"><rect x="36.667" y="0" width="18.333" height="18.333" style="fill:#fefefe;"/><path d="M55,0l-18.333,0l-0,18.333l18.333,0l0,-18.333Zm-0.667,0.667l0,17c0,-0 -17,-0 -17,-0c0,-0 0,-17 0,-17l17,-0Z" style="fill:#fafafa;"/><rect x="55" y="18.333" width="18.333" height="18.333" style="fill:#fefefe;"/><path d="M73.333,18.333l-18.333,0l0,18.334l18.333,-0l0,-18.334Zm-0.666,0.667l-0,17c-0,-0 -17,-0 -17,-0c-0,-0 -0,-17 -0,-17l17,0Z" style="fill:#fafafa;"/><rect x="36.667" y="18.333" width="18.333" height="18.333" style="fill:#fefefe;"/><path d="M55,18.333l-18.333,0l-0,18.334l18.333,-0l-0,-18.334Zm-0.667,0.667l0,17c0,-0 -17,-0 -17,-0c0,-0 0,-17 0,-17l17,0Z" style="fill:#fafafa;"/><rect x="55" y="0" width="18.333" height="18.333" style="fill:#fefefe;"/><path d="M73.333,0l-18.333,0l0,18.333l18.333,0l0,-18.333Zm-0.666,0.667l-0,17c-0,-0 -17,-0 -17,-0c-0,-0 -0,-17 -0,-17l17,-0Z" style="fill:#fafafa;"/></g></g></svg>