<?xml version="1.0" encoding="UTF-8" standalone="no"?><!DOCTYPE svg PUBLIC "-//W3C//DTD SVG 1.1//EN" "http://www.w3.org/Graphics/SVG/1.1/DTD/svg11.dtd"><svg width="100%" height="100%" viewBox="0 0 853 853" version="1.1" xmlns="http://www.w3.org/2000/svg" xmlns:xlink="http://www.w3.org/1999/xlink" xml:space="preserve" xmlns:serif="http://www.serif.com/" style="fill-rule:evenodd;clip-rule:evenodd;stroke-linecap:round;stroke-linejoin:round;stroke-miterlimit:1.5;"><path d="M198.864,568.182l-0,113.636l28.409,0l-0,56.818l28.409,0l-0,28.409l28.409,0l-0,28.41l28.409,-0l0,28.409l56.818,-0l0,28.409l56.818,-0l0,-28.409l28.409,-0l0,-56.819l56.819,0l-0,-28.409l28.409,0l-0,-28.409l28.409,0l-0,-113.636l-28.409,-0l-0,-28.409l-56.818,-0l-0,28.409l-113.637,-0l0,-28.409l-56.818,-0l0,28.409l-28.409,-0l-0,85.227l-28.409,0l-0,-28.409l-28.409,0l-0,-85.227l-28.409,-0Zm113.636,56.818l0,28.409l28.409,0l0,28.409l170.455,0l-0,-28.409l28.409,0l-0,-28.409l-227.273,0Z" style="fill:#1b689c;"/><path d="M397.727,426.136l0,56.819l-28.409,-0l0,28.409l-142.045,-0l-0,-28.409l-28.409,-0l-0,-28.41l-28.409,0l-0,-28.409l28.409,0l-0,-28.409l454.545,0l0,28.409l28.409,0l0,28.409l-28.409,0l0,28.41l-28.409,-0l0,28.409l-142.045,-0l-0,-28.409l-28.41,-0l0,-56.819l-56.818,0Zm-28.409,0l-142.045,0l-0,56.819l142.045,-0l0,-56.819Zm113.637,0l-0,56.819l142.045,-0l0,-56.819l-142.045,0Z" style="stroke:#000;stroke-width:0.45px;"/><path d="M170.455,426.136l-0,-56.818l-28.41,0l0,-170.454l28.41,-0l-0,-28.409l28.409,-0l-0,-28.41l28.409,0l-0,-28.409l28.409,0l-0,-28.409l28.409,0l-0,-28.409l28.409,0l0,-28.409l56.818,0l0,-28.409l142.046,-0l-0,28.409l56.818,0l-0,28.409l56.818,0l0,28.409l28.409,0l0,56.818l28.409,0l0,85.228l28.409,-0l0,142.045l-28.409,0l0,56.818l-28.409,0l0,-170.454l-28.409,-0l0,-85.227l-397.727,-0l-0,85.227l-28.409,-0l-0,170.454l-28.409,0Z" style="fill:#19242d;"/><g><g><g><path d="M397.727,170.455l0,28.409l-28.409,-0l0,28.409l-28.409,-0l0,113.636l28.409,0l0,28.409l28.409,0l0,28.409l198.864,0l-0,-56.818l-28.409,0l-0,-113.636l-28.409,-0l-0,-28.409l-28.409,-0l-0,-28.409" style="fill:#71e0e7;"/><path d="M454.545,482.955l0,85.227l-28.409,-0l0,28.409l56.819,-0l-0,-56.818l28.409,-0l-0,28.409l28.409,-0l-0,28.409l28.409,-0l-0,85.227l28.409,0l-0,-28.409l28.409,0l0,-142.045l-142.045,-0l-0,-28.409l-28.41,-0Z" style="fill:#71e0e7;"/><path d="M426.136,454.545l28.409,0l0,-28.409l-28.409,0" style="fill:#71e0e7;"/></g><path d="M397.727,170.455l0,28.409l-85.227,-0l0,56.818l-28.409,-0l-0,85.227l-28.409,0l-0,56.818l-56.818,0l-0,-142.045l28.409,-0l-0,-85.227l170.454,-0Z" style="fill:#2b5271;stroke:#000;stroke-width:0.45px;"/><path d="M142.045,397.727l28.41,0l-0,56.818l28.409,0l-0,28.41l28.409,-0l-0,85.227l-28.409,-0l-0,56.818l-28.409,0l-0,-56.818l-28.41,-0" style="fill:#2b5271;"/><path d="M340.909,539.773l0,28.409l28.409,-0l0,-28.409" style="fill:#2b5271;"/><rect x="369.318" y="568.182" width="28.409" height="28.409" style="fill:#2b5271;"/><rect x="397.727" y="710.227" width="56.818" height="28.409" style="fill:#2b5271;"/></g><path d="M369.318,198.864l0,28.409l-28.409,-0l0,113.636l28.409,0l0,28.409l28.409,0l0,28.409l-142.045,0l-0,-56.818l28.409,0l-0,-85.227l28.409,-0l0,-56.818l56.818,-0Z" style="fill:#86a9c5;"/><path d="M426.136,426.136l0,142.046l-56.818,-0l0,-28.409l-28.409,-0l0,28.409l-28.409,-0l0,28.409l-28.409,-0l-0,85.227l-28.409,0l-0,-28.409l-28.409,0l-0,-142.045l142.045,-0l0,-28.409l28.409,-0l0,-56.819" style="fill:#86a9c5;"/><rect x="369.318" y="681.818" width="56.818" height="28.409" style="fill:#86a9c5;"/></g><g><path d="M568.182,340.909l28.409,0l-0,56.818l56.818,0l0,-142.045l-28.409,-0l0,-85.227l-113.636,-0l-0,28.409l28.409,-0l-0,28.409l28.409,-0l-0,113.636Z" style="fill:#9dffd0;"/><path d="M681.818,397.727l0,56.818l-28.409,0l0,28.41l-28.409,-0l0,85.227l28.409,-0l0,56.818l28.409,0l0,-56.818l28.409,-0l0,-170.455l-28.409,0Z" style="fill:#9dffd0;"/><rect x="482.955" y="539.773" width="28.409" height="28.409" style="fill:#9dffd0;"/><path d="M426.136,454.545l0,113.637l-28.409,-0l0,28.409l28.409,-0l0,-28.409l28.409,-0l0,-113.637l-28.409,0Z" style="fill:#9dffd0;"/><rect x="454.545" y="681.818" width="28.409" height="28.409" style="fill:#9dffd0;"/></g><path d="M653.409,568.182l0,113.636l-28.409,0l0,56.818l-28.409,0l-0,28.409l-28.409,0l-0,28.41l-28.409,-0l-0,28.409l-56.818,-0l-0,28.409l-56.819,-0l0,-28.409l28.409,-0l0,-56.819l56.819,0l-0,-28.409l28.409,0l-0,-28.409l28.409,0l-0,-28.409l28.409,0l-0,-28.409l28.409,0l0,-85.227l28.409,-0Z" style="fill:#0cc6d4;"/><rect x="426.136" y="681.818" width="28.409" height="28.409" style="fill:#71e0e7;"/><rect x="227.273" y="426.136" width="142.045" height="56.818" style="fill:#fff;"/><rect x="482.955" y="426.136" width="142.045" height="56.818" style="fill:#fff;"/><path d="M312.5,625l227.273,0l-0,28.409l-28.409,0l-0,28.409l-170.455,0l0,-28.409l-28.409,0l0,-28.409Z" style="fill:#fff;"/></svg>